<mxfile host="app.diagrams.net" modified="2024-04-16T17:13:07.870Z" agent="Mozilla/5.0 (Windows NT 10.0; Win64; x64) AppleWebKit/537.36 (KHTML, like Gecko) Chrome/123.0.0.0 Safari/537.36 Edg/123.0.0.0" etag="EQVdsaJRdhGLRRMccTSE" version="24.2.3" type="device">
  <diagram id="C5RBs43oDa-KdzZeNtuy" name="Page-1">
    <mxGraphModel dx="2649" dy="2156" grid="1" gridSize="10" guides="1" tooltips="1" connect="1" arrows="1" fold="1" page="1" pageScale="1" pageWidth="827" pageHeight="1169" math="0" shadow="0">
      <root>
        <mxCell id="WIyWlLk6GJQsqaUBKTNV-0" />
        <mxCell id="WIyWlLk6GJQsqaUBKTNV-1" parent="WIyWlLk6GJQsqaUBKTNV-0" />
        <mxCell id="zkfFHV4jXpPFQw0GAbJ--0" value="FactoryL1" style="swimlane;fontStyle=2;align=center;verticalAlign=top;childLayout=stackLayout;horizontal=1;startSize=26;horizontalStack=0;resizeParent=1;resizeLast=0;collapsible=1;marginBottom=0;rounded=0;shadow=0;strokeWidth=1;" parent="WIyWlLk6GJQsqaUBKTNV-1" vertex="1">
          <mxGeometry x="120" y="110" width="260" height="120" as="geometry">
            <mxRectangle x="230" y="140" width="160" height="26" as="alternateBounds" />
          </mxGeometry>
        </mxCell>
        <mxCell id="zkfFHV4jXpPFQw0GAbJ--4" value="" style="line;html=1;strokeWidth=1;align=left;verticalAlign=middle;spacingTop=-1;spacingLeft=3;spacingRight=3;rotatable=0;labelPosition=right;points=[];portConstraint=eastwest;" parent="zkfFHV4jXpPFQw0GAbJ--0" vertex="1">
          <mxGeometry y="26" width="260" height="8" as="geometry" />
        </mxCell>
        <mxCell id="zkfFHV4jXpPFQw0GAbJ--5" value="+getA(float cost1hour):IBonus" style="text;align=left;verticalAlign=top;spacingLeft=4;spacingRight=4;overflow=hidden;rotatable=0;points=[[0,0.5],[1,0.5]];portConstraint=eastwest;" parent="zkfFHV4jXpPFQw0GAbJ--0" vertex="1">
          <mxGeometry y="34" width="260" height="26" as="geometry" />
        </mxCell>
        <mxCell id="Mr1L3PNaYn9m-BKiw8RI-86" value="+getB(float cost1hour, float x):IBonus" style="text;align=left;verticalAlign=top;spacingLeft=4;spacingRight=4;overflow=hidden;rotatable=0;points=[[0,0.5],[1,0.5]];portConstraint=eastwest;" parent="zkfFHV4jXpPFQw0GAbJ--0" vertex="1">
          <mxGeometry y="60" width="260" height="26" as="geometry" />
        </mxCell>
        <mxCell id="Mr1L3PNaYn9m-BKiw8RI-87" value="+getC(float cost1hour, float x, float y):IBonus" style="text;align=left;verticalAlign=top;spacingLeft=4;spacingRight=4;overflow=hidden;rotatable=0;points=[[0,0.5],[1,0.5]];portConstraint=eastwest;" parent="zkfFHV4jXpPFQw0GAbJ--0" vertex="1">
          <mxGeometry y="86" width="260" height="26" as="geometry" />
        </mxCell>
        <mxCell id="Mr1L3PNaYn9m-BKiw8RI-130" style="edgeStyle=orthogonalEdgeStyle;rounded=0;orthogonalLoop=1;jettySize=auto;html=1;exitX=0.5;exitY=0;exitDx=0;exitDy=0;dashed=1;endArrow=block;endFill=0;" parent="WIyWlLk6GJQsqaUBKTNV-1" source="Mr1L3PNaYn9m-BKiw8RI-95" edge="1">
          <mxGeometry relative="1" as="geometry">
            <mxPoint x="560" y="-30" as="targetPoint" />
          </mxGeometry>
        </mxCell>
        <mxCell id="Mr1L3PNaYn9m-BKiw8RI-88" value="&amp;lt;&amp;lt;interface&amp;gt;&amp;gt; IFactory" style="swimlane;fontStyle=0;childLayout=stackLayout;horizontal=1;startSize=30;horizontalStack=0;resizeParent=1;resizeParentMax=0;resizeLast=0;collapsible=1;marginBottom=0;whiteSpace=wrap;html=1;" parent="WIyWlLk6GJQsqaUBKTNV-1" vertex="1">
          <mxGeometry x="420" y="-140" width="290" height="108" as="geometry" />
        </mxCell>
        <mxCell id="Mr1L3PNaYn9m-BKiw8RI-124" value="+getA(float cost1hour):IBonus" style="text;align=left;verticalAlign=top;spacingLeft=4;spacingRight=4;overflow=hidden;rotatable=0;points=[[0,0.5],[1,0.5]];portConstraint=eastwest;" parent="Mr1L3PNaYn9m-BKiw8RI-88" vertex="1">
          <mxGeometry y="30" width="290" height="26" as="geometry" />
        </mxCell>
        <mxCell id="Mr1L3PNaYn9m-BKiw8RI-126" value="+getC(float cost1hour, float x, float y):IBonus" style="text;align=left;verticalAlign=top;spacingLeft=4;spacingRight=4;overflow=hidden;rotatable=0;points=[[0,0.5],[1,0.5]];portConstraint=eastwest;" parent="Mr1L3PNaYn9m-BKiw8RI-88" vertex="1">
          <mxGeometry y="56" width="290" height="26" as="geometry" />
        </mxCell>
        <mxCell id="Mr1L3PNaYn9m-BKiw8RI-125" value="+getB(float cost1hour, float x):IBonus" style="text;align=left;verticalAlign=top;spacingLeft=4;spacingRight=4;overflow=hidden;rotatable=0;points=[[0,0.5],[1,0.5]];portConstraint=eastwest;" parent="Mr1L3PNaYn9m-BKiw8RI-88" vertex="1">
          <mxGeometry y="82" width="290" height="26" as="geometry" />
        </mxCell>
        <mxCell id="Mr1L3PNaYn9m-BKiw8RI-95" value="FactoryL2" style="swimlane;fontStyle=2;align=center;verticalAlign=top;childLayout=stackLayout;horizontal=1;startSize=26;horizontalStack=0;resizeParent=1;resizeLast=0;collapsible=1;marginBottom=0;rounded=0;shadow=0;strokeWidth=1;" parent="WIyWlLk6GJQsqaUBKTNV-1" vertex="1">
          <mxGeometry x="430" y="128" width="260" height="184" as="geometry">
            <mxRectangle x="230" y="140" width="160" height="26" as="alternateBounds" />
          </mxGeometry>
        </mxCell>
        <mxCell id="Mr1L3PNaYn9m-BKiw8RI-107" value="&lt;&lt;setter&gt;&gt;+A:float" style="text;align=left;verticalAlign=top;spacingLeft=4;spacingRight=4;overflow=hidden;rotatable=0;points=[[0,0.5],[1,0.5]];portConstraint=eastwest;" parent="Mr1L3PNaYn9m-BKiw8RI-95" vertex="1">
          <mxGeometry y="26" width="260" height="26" as="geometry" />
        </mxCell>
        <mxCell id="Mr1L3PNaYn9m-BKiw8RI-109" value="&lt;&lt;getter&gt;&gt;+A:float" style="text;align=left;verticalAlign=top;spacingLeft=4;spacingRight=4;overflow=hidden;rotatable=0;points=[[0,0.5],[1,0.5]];portConstraint=eastwest;" parent="Mr1L3PNaYn9m-BKiw8RI-95" vertex="1">
          <mxGeometry y="52" width="260" height="26" as="geometry" />
        </mxCell>
        <mxCell id="Mr1L3PNaYn9m-BKiw8RI-96" value="" style="line;html=1;strokeWidth=1;align=left;verticalAlign=middle;spacingTop=-1;spacingLeft=3;spacingRight=3;rotatable=0;labelPosition=right;points=[];portConstraint=eastwest;" parent="Mr1L3PNaYn9m-BKiw8RI-95" vertex="1">
          <mxGeometry y="78" width="260" height="8" as="geometry" />
        </mxCell>
        <mxCell id="Mr1L3PNaYn9m-BKiw8RI-114" value="&amp;lt;&amp;lt;constructor&amp;gt;&amp;gt;+FactoryL2(float)" style="text;strokeColor=none;fillColor=none;align=left;verticalAlign=middle;spacingLeft=4;spacingRight=4;overflow=hidden;points=[[0,0.5],[1,0.5]];portConstraint=eastwest;rotatable=0;whiteSpace=wrap;html=1;" parent="Mr1L3PNaYn9m-BKiw8RI-95" vertex="1">
          <mxGeometry y="86" width="260" height="20" as="geometry" />
        </mxCell>
        <mxCell id="Mr1L3PNaYn9m-BKiw8RI-97" value="+getA(float cost1hour):IBonus" style="text;align=left;verticalAlign=top;spacingLeft=4;spacingRight=4;overflow=hidden;rotatable=0;points=[[0,0.5],[1,0.5]];portConstraint=eastwest;" parent="Mr1L3PNaYn9m-BKiw8RI-95" vertex="1">
          <mxGeometry y="106" width="260" height="26" as="geometry" />
        </mxCell>
        <mxCell id="Mr1L3PNaYn9m-BKiw8RI-98" value="+getB(float cost1hour, float x):IBonus" style="text;align=left;verticalAlign=top;spacingLeft=4;spacingRight=4;overflow=hidden;rotatable=0;points=[[0,0.5],[1,0.5]];portConstraint=eastwest;" parent="Mr1L3PNaYn9m-BKiw8RI-95" vertex="1">
          <mxGeometry y="132" width="260" height="26" as="geometry" />
        </mxCell>
        <mxCell id="Mr1L3PNaYn9m-BKiw8RI-99" value="+getC(float cost1hour, float x, float y):IBonus" style="text;align=left;verticalAlign=top;spacingLeft=4;spacingRight=4;overflow=hidden;rotatable=0;points=[[0,0.5],[1,0.5]];portConstraint=eastwest;" parent="Mr1L3PNaYn9m-BKiw8RI-95" vertex="1">
          <mxGeometry y="158" width="260" height="26" as="geometry" />
        </mxCell>
        <mxCell id="Mr1L3PNaYn9m-BKiw8RI-100" value="FactoryL3" style="swimlane;fontStyle=2;align=center;verticalAlign=top;childLayout=stackLayout;horizontal=1;startSize=26;horizontalStack=0;resizeParent=1;resizeLast=0;collapsible=1;marginBottom=0;rounded=0;shadow=0;strokeWidth=1;" parent="WIyWlLk6GJQsqaUBKTNV-1" vertex="1">
          <mxGeometry x="730" y="110" width="260" height="236" as="geometry">
            <mxRectangle x="230" y="140" width="160" height="26" as="alternateBounds" />
          </mxGeometry>
        </mxCell>
        <mxCell id="Mr1L3PNaYn9m-BKiw8RI-111" value="&lt;&lt;getter&gt;&gt;+A:float" style="text;align=left;verticalAlign=top;spacingLeft=4;spacingRight=4;overflow=hidden;rotatable=0;points=[[0,0.5],[1,0.5]];portConstraint=eastwest;" parent="Mr1L3PNaYn9m-BKiw8RI-100" vertex="1">
          <mxGeometry y="26" width="260" height="26" as="geometry" />
        </mxCell>
        <mxCell id="Mr1L3PNaYn9m-BKiw8RI-110" value="&lt;&lt;setter&gt;&gt;+A:float" style="text;align=left;verticalAlign=top;spacingLeft=4;spacingRight=4;overflow=hidden;rotatable=0;points=[[0,0.5],[1,0.5]];portConstraint=eastwest;" parent="Mr1L3PNaYn9m-BKiw8RI-100" vertex="1">
          <mxGeometry y="52" width="260" height="26" as="geometry" />
        </mxCell>
        <mxCell id="Mr1L3PNaYn9m-BKiw8RI-112" value="&lt;&lt;getter&gt;&gt;+B:float" style="text;align=left;verticalAlign=top;spacingLeft=4;spacingRight=4;overflow=hidden;rotatable=0;points=[[0,0.5],[1,0.5]];portConstraint=eastwest;" parent="Mr1L3PNaYn9m-BKiw8RI-100" vertex="1">
          <mxGeometry y="78" width="260" height="26" as="geometry" />
        </mxCell>
        <mxCell id="Mr1L3PNaYn9m-BKiw8RI-113" value="&lt;&lt;setter&gt;&gt;+B:float" style="text;align=left;verticalAlign=top;spacingLeft=4;spacingRight=4;overflow=hidden;rotatable=0;points=[[0,0.5],[1,0.5]];portConstraint=eastwest;" parent="Mr1L3PNaYn9m-BKiw8RI-100" vertex="1">
          <mxGeometry y="104" width="260" height="26" as="geometry" />
        </mxCell>
        <mxCell id="Mr1L3PNaYn9m-BKiw8RI-101" value="" style="line;html=1;strokeWidth=1;align=left;verticalAlign=middle;spacingTop=-1;spacingLeft=3;spacingRight=3;rotatable=0;labelPosition=right;points=[];portConstraint=eastwest;" parent="Mr1L3PNaYn9m-BKiw8RI-100" vertex="1">
          <mxGeometry y="130" width="260" height="8" as="geometry" />
        </mxCell>
        <mxCell id="Mr1L3PNaYn9m-BKiw8RI-115" value="&amp;lt;&amp;lt;constructor&amp;gt;&amp;gt;+FactoryL3(float, float)" style="text;strokeColor=none;fillColor=none;align=left;verticalAlign=middle;spacingLeft=4;spacingRight=4;overflow=hidden;points=[[0,0.5],[1,0.5]];portConstraint=eastwest;rotatable=0;whiteSpace=wrap;html=1;" parent="Mr1L3PNaYn9m-BKiw8RI-100" vertex="1">
          <mxGeometry y="138" width="260" height="20" as="geometry" />
        </mxCell>
        <mxCell id="Mr1L3PNaYn9m-BKiw8RI-102" value="+getA(float cost1hour):IBonus" style="text;align=left;verticalAlign=top;spacingLeft=4;spacingRight=4;overflow=hidden;rotatable=0;points=[[0,0.5],[1,0.5]];portConstraint=eastwest;" parent="Mr1L3PNaYn9m-BKiw8RI-100" vertex="1">
          <mxGeometry y="158" width="260" height="26" as="geometry" />
        </mxCell>
        <mxCell id="Mr1L3PNaYn9m-BKiw8RI-103" value="+getB(float cost1hour, float x):IBonus" style="text;align=left;verticalAlign=top;spacingLeft=4;spacingRight=4;overflow=hidden;rotatable=0;points=[[0,0.5],[1,0.5]];portConstraint=eastwest;" parent="Mr1L3PNaYn9m-BKiw8RI-100" vertex="1">
          <mxGeometry y="184" width="260" height="26" as="geometry" />
        </mxCell>
        <mxCell id="Mr1L3PNaYn9m-BKiw8RI-104" value="+getC(float cost1hour, float x, float y):IBonus" style="text;align=left;verticalAlign=top;spacingLeft=4;spacingRight=4;overflow=hidden;rotatable=0;points=[[0,0.5],[1,0.5]];portConstraint=eastwest;" parent="Mr1L3PNaYn9m-BKiw8RI-100" vertex="1">
          <mxGeometry y="210" width="260" height="26" as="geometry" />
        </mxCell>
        <mxCell id="Mr1L3PNaYn9m-BKiw8RI-116" value="&amp;lt;&amp;lt;interface&amp;gt;&amp;gt; IBonus" style="swimlane;fontStyle=0;childLayout=stackLayout;horizontal=1;startSize=30;horizontalStack=0;resizeParent=1;resizeParentMax=0;resizeLast=0;collapsible=1;marginBottom=0;whiteSpace=wrap;html=1;" parent="WIyWlLk6GJQsqaUBKTNV-1" vertex="1">
          <mxGeometry x="404" y="560" width="290" height="90" as="geometry" />
        </mxCell>
        <mxCell id="Mr1L3PNaYn9m-BKiw8RI-117" value="&amp;lt;&amp;lt;getter&amp;gt;&amp;gt;cost1hour:float" style="text;strokeColor=none;fillColor=none;align=left;verticalAlign=middle;spacingLeft=4;spacingRight=4;overflow=hidden;points=[[0,0.5],[1,0.5]];portConstraint=eastwest;rotatable=0;whiteSpace=wrap;html=1;" parent="Mr1L3PNaYn9m-BKiw8RI-116" vertex="1">
          <mxGeometry y="30" width="290" height="20" as="geometry" />
        </mxCell>
        <mxCell id="Mr1L3PNaYn9m-BKiw8RI-118" value="&amp;lt;&amp;lt;setter&amp;gt;&amp;gt;cost1hour:float" style="text;strokeColor=none;fillColor=none;align=left;verticalAlign=middle;spacingLeft=4;spacingRight=4;overflow=hidden;points=[[0,0.5],[1,0.5]];portConstraint=eastwest;rotatable=0;whiteSpace=wrap;html=1;" parent="Mr1L3PNaYn9m-BKiw8RI-116" vertex="1">
          <mxGeometry y="50" width="290" height="20" as="geometry" />
        </mxCell>
        <mxCell id="Mr1L3PNaYn9m-BKiw8RI-119" value="calc(float number_hours):void" style="text;strokeColor=none;fillColor=none;align=left;verticalAlign=middle;spacingLeft=4;spacingRight=4;overflow=hidden;points=[[0,0.5],[1,0.5]];portConstraint=eastwest;rotatable=0;whiteSpace=wrap;html=1;" parent="Mr1L3PNaYn9m-BKiw8RI-116" vertex="1">
          <mxGeometry y="70" width="290" height="20" as="geometry" />
        </mxCell>
        <mxCell id="Mr1L3PNaYn9m-BKiw8RI-172" value="Employee" style="swimlane;fontStyle=2;align=center;verticalAlign=top;childLayout=stackLayout;horizontal=1;startSize=26;horizontalStack=0;resizeParent=1;resizeLast=0;collapsible=1;marginBottom=0;rounded=0;shadow=0;strokeWidth=1;" parent="WIyWlLk6GJQsqaUBKTNV-1" vertex="1">
          <mxGeometry x="880" y="-161" width="260" height="150" as="geometry">
            <mxRectangle x="230" y="140" width="160" height="26" as="alternateBounds" />
          </mxGeometry>
        </mxCell>
        <mxCell id="Mr1L3PNaYn9m-BKiw8RI-173" value="&lt;&lt;getter&gt;&gt;+bonus:IBonus" style="text;align=left;verticalAlign=top;spacingLeft=4;spacingRight=4;overflow=hidden;rotatable=0;points=[[0,0.5],[1,0.5]];portConstraint=eastwest;" parent="Mr1L3PNaYn9m-BKiw8RI-172" vertex="1">
          <mxGeometry y="26" width="260" height="26" as="geometry" />
        </mxCell>
        <mxCell id="Mr1L3PNaYn9m-BKiw8RI-174" value="&lt;&lt;setter&gt;&gt;-bonus:IBonus" style="text;align=left;verticalAlign=top;spacingLeft=4;spacingRight=4;overflow=hidden;rotatable=0;points=[[0,0.5],[1,0.5]];portConstraint=eastwest;" parent="Mr1L3PNaYn9m-BKiw8RI-172" vertex="1">
          <mxGeometry y="52" width="260" height="26" as="geometry" />
        </mxCell>
        <mxCell id="Mr1L3PNaYn9m-BKiw8RI-181" value="" style="line;html=1;strokeWidth=1;align=left;verticalAlign=middle;spacingTop=-1;spacingLeft=3;spacingRight=3;rotatable=0;labelPosition=right;points=[];portConstraint=eastwest;" parent="Mr1L3PNaYn9m-BKiw8RI-172" vertex="1">
          <mxGeometry y="78" width="260" height="8" as="geometry" />
        </mxCell>
        <mxCell id="Mr1L3PNaYn9m-BKiw8RI-182" value="&amp;lt;&amp;lt;constructor&amp;gt;&amp;gt;+BonusA(float, float, float)" style="text;strokeColor=none;fillColor=none;align=left;verticalAlign=middle;spacingLeft=4;spacingRight=4;overflow=hidden;points=[[0,0.5],[1,0.5]];portConstraint=eastwest;rotatable=0;whiteSpace=wrap;html=1;" parent="Mr1L3PNaYn9m-BKiw8RI-172" vertex="1">
          <mxGeometry y="86" width="260" height="20" as="geometry" />
        </mxCell>
        <mxCell id="Mr1L3PNaYn9m-BKiw8RI-183" value="+calc(float number_hours):float" style="text;align=left;verticalAlign=top;spacingLeft=4;spacingRight=4;overflow=hidden;rotatable=0;points=[[0,0.5],[1,0.5]];portConstraint=eastwest;" parent="Mr1L3PNaYn9m-BKiw8RI-172" vertex="1">
          <mxGeometry y="106" width="260" height="26" as="geometry" />
        </mxCell>
        <mxCell id="Mr1L3PNaYn9m-BKiw8RI-186" style="edgeStyle=orthogonalEdgeStyle;rounded=0;orthogonalLoop=1;jettySize=auto;html=1;entryX=0.5;entryY=0;entryDx=0;entryDy=0;dashed=1;endArrow=none;endFill=0;" parent="WIyWlLk6GJQsqaUBKTNV-1" target="Mr1L3PNaYn9m-BKiw8RI-100" edge="1">
          <mxGeometry relative="1" as="geometry">
            <mxPoint x="560" y="20" as="sourcePoint" />
            <mxPoint x="670" y="90" as="targetPoint" />
          </mxGeometry>
        </mxCell>
        <mxCell id="Mr1L3PNaYn9m-BKiw8RI-189" style="edgeStyle=orthogonalEdgeStyle;rounded=0;orthogonalLoop=1;jettySize=auto;html=1;entryX=0.5;entryY=0;entryDx=0;entryDy=0;dashed=1;endArrow=none;endFill=0;" parent="WIyWlLk6GJQsqaUBKTNV-1" target="zkfFHV4jXpPFQw0GAbJ--0" edge="1">
          <mxGeometry relative="1" as="geometry">
            <mxPoint x="560" y="20" as="sourcePoint" />
            <mxPoint x="860" y="110" as="targetPoint" />
          </mxGeometry>
        </mxCell>
        <mxCell id="Mr1L3PNaYn9m-BKiw8RI-193" style="edgeStyle=orthogonalEdgeStyle;rounded=0;orthogonalLoop=1;jettySize=auto;html=1;exitX=0;exitY=0.5;exitDx=0;exitDy=0;entryX=1;entryY=0.25;entryDx=0;entryDy=0;" parent="WIyWlLk6GJQsqaUBKTNV-1" source="Mr1L3PNaYn9m-BKiw8RI-182" target="Mr1L3PNaYn9m-BKiw8RI-88" edge="1">
          <mxGeometry relative="1" as="geometry" />
        </mxCell>
        <mxCell id="Mr1L3PNaYn9m-BKiw8RI-194" value="Bonus1A" style="rounded=1;whiteSpace=wrap;html=1;" parent="WIyWlLk6GJQsqaUBKTNV-1" vertex="1">
          <mxGeometry x="-120" y="84" width="120" height="60" as="geometry" />
        </mxCell>
        <mxCell id="Mr1L3PNaYn9m-BKiw8RI-195" value="Bonus1B" style="rounded=1;whiteSpace=wrap;html=1;" parent="WIyWlLk6GJQsqaUBKTNV-1" vertex="1">
          <mxGeometry x="-120" y="170" width="120" height="60" as="geometry" />
        </mxCell>
        <mxCell id="Mr1L3PNaYn9m-BKiw8RI-196" value="Bonus1C" style="rounded=1;whiteSpace=wrap;html=1;" parent="WIyWlLk6GJQsqaUBKTNV-1" vertex="1">
          <mxGeometry x="-120" y="260" width="120" height="60" as="geometry" />
        </mxCell>
        <mxCell id="Mr1L3PNaYn9m-BKiw8RI-198" style="edgeStyle=orthogonalEdgeStyle;rounded=0;orthogonalLoop=1;jettySize=auto;html=1;exitX=0;exitY=0.5;exitDx=0;exitDy=0;" parent="WIyWlLk6GJQsqaUBKTNV-1" source="zkfFHV4jXpPFQw0GAbJ--5" target="Mr1L3PNaYn9m-BKiw8RI-194" edge="1">
          <mxGeometry relative="1" as="geometry" />
        </mxCell>
        <mxCell id="Mr1L3PNaYn9m-BKiw8RI-201" style="edgeStyle=orthogonalEdgeStyle;rounded=0;orthogonalLoop=1;jettySize=auto;html=1;exitX=0;exitY=0.5;exitDx=0;exitDy=0;entryX=1;entryY=0.5;entryDx=0;entryDy=0;" parent="WIyWlLk6GJQsqaUBKTNV-1" source="Mr1L3PNaYn9m-BKiw8RI-86" target="Mr1L3PNaYn9m-BKiw8RI-195" edge="1">
          <mxGeometry relative="1" as="geometry" />
        </mxCell>
        <mxCell id="Mr1L3PNaYn9m-BKiw8RI-202" style="edgeStyle=orthogonalEdgeStyle;rounded=0;orthogonalLoop=1;jettySize=auto;html=1;exitX=0;exitY=0.5;exitDx=0;exitDy=0;entryX=1;entryY=0.5;entryDx=0;entryDy=0;" parent="WIyWlLk6GJQsqaUBKTNV-1" source="Mr1L3PNaYn9m-BKiw8RI-87" target="Mr1L3PNaYn9m-BKiw8RI-196" edge="1">
          <mxGeometry relative="1" as="geometry" />
        </mxCell>
        <mxCell id="Mr1L3PNaYn9m-BKiw8RI-203" value="Bonus3A" style="rounded=1;whiteSpace=wrap;html=1;" parent="WIyWlLk6GJQsqaUBKTNV-1" vertex="1">
          <mxGeometry x="1121" y="190" width="120" height="60" as="geometry" />
        </mxCell>
        <mxCell id="Mr1L3PNaYn9m-BKiw8RI-204" value="Bonus3B" style="rounded=1;whiteSpace=wrap;html=1;" parent="WIyWlLk6GJQsqaUBKTNV-1" vertex="1">
          <mxGeometry x="1121" y="276" width="120" height="60" as="geometry" />
        </mxCell>
        <mxCell id="Mr1L3PNaYn9m-BKiw8RI-205" value="Bonus3C" style="rounded=1;whiteSpace=wrap;html=1;" parent="WIyWlLk6GJQsqaUBKTNV-1" vertex="1">
          <mxGeometry x="1121" y="366" width="120" height="60" as="geometry" />
        </mxCell>
        <mxCell id="Mr1L3PNaYn9m-BKiw8RI-206" style="edgeStyle=orthogonalEdgeStyle;rounded=0;orthogonalLoop=1;jettySize=auto;html=1;exitX=1;exitY=0.5;exitDx=0;exitDy=0;entryX=0;entryY=0.5;entryDx=0;entryDy=0;" parent="WIyWlLk6GJQsqaUBKTNV-1" source="Mr1L3PNaYn9m-BKiw8RI-102" target="Mr1L3PNaYn9m-BKiw8RI-203" edge="1">
          <mxGeometry relative="1" as="geometry" />
        </mxCell>
        <mxCell id="Mr1L3PNaYn9m-BKiw8RI-207" style="edgeStyle=orthogonalEdgeStyle;rounded=0;orthogonalLoop=1;jettySize=auto;html=1;exitX=1;exitY=0.5;exitDx=0;exitDy=0;entryX=0;entryY=0.5;entryDx=0;entryDy=0;" parent="WIyWlLk6GJQsqaUBKTNV-1" source="Mr1L3PNaYn9m-BKiw8RI-103" target="Mr1L3PNaYn9m-BKiw8RI-204" edge="1">
          <mxGeometry relative="1" as="geometry" />
        </mxCell>
        <mxCell id="Mr1L3PNaYn9m-BKiw8RI-208" style="edgeStyle=orthogonalEdgeStyle;rounded=0;orthogonalLoop=1;jettySize=auto;html=1;exitX=1;exitY=0.5;exitDx=0;exitDy=0;entryX=0;entryY=0.5;entryDx=0;entryDy=0;" parent="WIyWlLk6GJQsqaUBKTNV-1" source="Mr1L3PNaYn9m-BKiw8RI-104" target="Mr1L3PNaYn9m-BKiw8RI-205" edge="1">
          <mxGeometry relative="1" as="geometry" />
        </mxCell>
        <mxCell id="Mr1L3PNaYn9m-BKiw8RI-209" value="Bonus2A" style="rounded=1;whiteSpace=wrap;html=1;" parent="WIyWlLk6GJQsqaUBKTNV-1" vertex="1">
          <mxGeometry x="130" y="370" width="120" height="60" as="geometry" />
        </mxCell>
        <mxCell id="Mr1L3PNaYn9m-BKiw8RI-210" value="Bonus2B" style="rounded=1;whiteSpace=wrap;html=1;" parent="WIyWlLk6GJQsqaUBKTNV-1" vertex="1">
          <mxGeometry x="280" y="366" width="120" height="60" as="geometry" />
        </mxCell>
        <mxCell id="Mr1L3PNaYn9m-BKiw8RI-211" value="Bonus2C" style="rounded=1;whiteSpace=wrap;html=1;" parent="WIyWlLk6GJQsqaUBKTNV-1" vertex="1">
          <mxGeometry x="440" y="370" width="120" height="60" as="geometry" />
        </mxCell>
        <mxCell id="Mr1L3PNaYn9m-BKiw8RI-212" style="edgeStyle=orthogonalEdgeStyle;rounded=0;orthogonalLoop=1;jettySize=auto;html=1;exitX=0;exitY=0.5;exitDx=0;exitDy=0;entryX=0.5;entryY=0;entryDx=0;entryDy=0;" parent="WIyWlLk6GJQsqaUBKTNV-1" source="Mr1L3PNaYn9m-BKiw8RI-97" target="Mr1L3PNaYn9m-BKiw8RI-209" edge="1">
          <mxGeometry relative="1" as="geometry" />
        </mxCell>
        <mxCell id="Mr1L3PNaYn9m-BKiw8RI-213" style="edgeStyle=orthogonalEdgeStyle;rounded=0;orthogonalLoop=1;jettySize=auto;html=1;exitX=0;exitY=0.5;exitDx=0;exitDy=0;entryX=0.5;entryY=0;entryDx=0;entryDy=0;" parent="WIyWlLk6GJQsqaUBKTNV-1" source="Mr1L3PNaYn9m-BKiw8RI-98" target="Mr1L3PNaYn9m-BKiw8RI-210" edge="1">
          <mxGeometry relative="1" as="geometry" />
        </mxCell>
        <mxCell id="Mr1L3PNaYn9m-BKiw8RI-214" style="edgeStyle=orthogonalEdgeStyle;rounded=0;orthogonalLoop=1;jettySize=auto;html=1;exitX=0;exitY=0.5;exitDx=0;exitDy=0;" parent="WIyWlLk6GJQsqaUBKTNV-1" source="Mr1L3PNaYn9m-BKiw8RI-99" target="Mr1L3PNaYn9m-BKiw8RI-211" edge="1">
          <mxGeometry relative="1" as="geometry" />
        </mxCell>
        <mxCell id="gzNBJORp5cGL8AY3jgsd-0" value="" style="endArrow=block;html=1;rounded=0;exitX=0.5;exitY=0;exitDx=0;exitDy=0;entryX=0.5;entryY=1;entryDx=0;entryDy=0;endFill=0;dashed=1;" edge="1" parent="WIyWlLk6GJQsqaUBKTNV-1" source="Mr1L3PNaYn9m-BKiw8RI-116" target="Mr1L3PNaYn9m-BKiw8RI-205">
          <mxGeometry width="50" height="50" relative="1" as="geometry">
            <mxPoint x="660" y="550" as="sourcePoint" />
            <mxPoint x="710" y="500" as="targetPoint" />
            <Array as="points">
              <mxPoint x="549" y="500" />
              <mxPoint x="1180" y="500" />
            </Array>
          </mxGeometry>
        </mxCell>
        <mxCell id="gzNBJORp5cGL8AY3jgsd-1" value="" style="endArrow=block;html=1;rounded=0;exitX=0.5;exitY=0;exitDx=0;exitDy=0;entryX=1;entryY=0.5;entryDx=0;entryDy=0;endFill=0;dashed=1;" edge="1" parent="WIyWlLk6GJQsqaUBKTNV-1" source="Mr1L3PNaYn9m-BKiw8RI-116" target="Mr1L3PNaYn9m-BKiw8RI-204">
          <mxGeometry width="50" height="50" relative="1" as="geometry">
            <mxPoint x="739" y="594" as="sourcePoint" />
            <mxPoint x="1371" y="460" as="targetPoint" />
            <Array as="points">
              <mxPoint x="549" y="534" />
              <mxPoint x="1370" y="534" />
              <mxPoint x="1370" y="306" />
            </Array>
          </mxGeometry>
        </mxCell>
        <mxCell id="gzNBJORp5cGL8AY3jgsd-2" value="" style="endArrow=block;html=1;rounded=0;exitX=1;exitY=0;exitDx=0;exitDy=0;entryX=1;entryY=0.5;entryDx=0;entryDy=0;endFill=0;dashed=1;" edge="1" parent="WIyWlLk6GJQsqaUBKTNV-1" source="Mr1L3PNaYn9m-BKiw8RI-116" target="Mr1L3PNaYn9m-BKiw8RI-203">
          <mxGeometry width="50" height="50" relative="1" as="geometry">
            <mxPoint x="569" y="580" as="sourcePoint" />
            <mxPoint x="1201" y="446" as="targetPoint" />
            <Array as="points">
              <mxPoint x="1360" y="560" />
              <mxPoint x="1360" y="220" />
            </Array>
          </mxGeometry>
        </mxCell>
        <mxCell id="gzNBJORp5cGL8AY3jgsd-3" value="" style="endArrow=block;html=1;rounded=0;exitX=0.5;exitY=0;exitDx=0;exitDy=0;entryX=0.5;entryY=1;entryDx=0;entryDy=0;dashed=1;endFill=0;" edge="1" parent="WIyWlLk6GJQsqaUBKTNV-1" source="Mr1L3PNaYn9m-BKiw8RI-116" target="Mr1L3PNaYn9m-BKiw8RI-211">
          <mxGeometry width="50" height="50" relative="1" as="geometry">
            <mxPoint x="440" y="550" as="sourcePoint" />
            <mxPoint x="490" y="500" as="targetPoint" />
            <Array as="points">
              <mxPoint x="549" y="490" />
              <mxPoint x="500" y="490" />
            </Array>
          </mxGeometry>
        </mxCell>
        <mxCell id="gzNBJORp5cGL8AY3jgsd-4" value="" style="endArrow=block;html=1;rounded=0;exitX=0.5;exitY=0;exitDx=0;exitDy=0;entryX=0.5;entryY=1;entryDx=0;entryDy=0;dashed=1;endFill=0;" edge="1" parent="WIyWlLk6GJQsqaUBKTNV-1" source="Mr1L3PNaYn9m-BKiw8RI-116" target="Mr1L3PNaYn9m-BKiw8RI-210">
          <mxGeometry width="50" height="50" relative="1" as="geometry">
            <mxPoint x="440" y="550" as="sourcePoint" />
            <mxPoint x="490" y="500" as="targetPoint" />
            <Array as="points">
              <mxPoint x="549" y="520" />
              <mxPoint x="340" y="520" />
            </Array>
          </mxGeometry>
        </mxCell>
        <mxCell id="gzNBJORp5cGL8AY3jgsd-5" value="" style="endArrow=block;html=1;rounded=0;exitX=0.5;exitY=0;exitDx=0;exitDy=0;entryX=0.5;entryY=1;entryDx=0;entryDy=0;dashed=1;endFill=0;" edge="1" parent="WIyWlLk6GJQsqaUBKTNV-1" source="Mr1L3PNaYn9m-BKiw8RI-116" target="Mr1L3PNaYn9m-BKiw8RI-209">
          <mxGeometry width="50" height="50" relative="1" as="geometry">
            <mxPoint x="440" y="550" as="sourcePoint" />
            <mxPoint x="490" y="500" as="targetPoint" />
            <Array as="points">
              <mxPoint x="549" y="470" />
              <mxPoint x="190" y="470" />
            </Array>
          </mxGeometry>
        </mxCell>
        <mxCell id="gzNBJORp5cGL8AY3jgsd-6" value="" style="endArrow=block;html=1;rounded=0;exitX=0;exitY=0.5;exitDx=0;exitDy=0;entryX=0.5;entryY=1;entryDx=0;entryDy=0;endFill=0;dashed=1;" edge="1" parent="WIyWlLk6GJQsqaUBKTNV-1" source="Mr1L3PNaYn9m-BKiw8RI-116" target="Mr1L3PNaYn9m-BKiw8RI-196">
          <mxGeometry width="50" height="50" relative="1" as="geometry">
            <mxPoint x="440" y="550" as="sourcePoint" />
            <mxPoint x="490" y="500" as="targetPoint" />
            <Array as="points">
              <mxPoint x="-60" y="605" />
            </Array>
          </mxGeometry>
        </mxCell>
        <mxCell id="gzNBJORp5cGL8AY3jgsd-7" value="" style="endArrow=block;html=1;rounded=0;exitX=0;exitY=0;exitDx=0;exitDy=0;entryX=0;entryY=0.5;entryDx=0;entryDy=0;dashed=1;endFill=0;" edge="1" parent="WIyWlLk6GJQsqaUBKTNV-1" source="Mr1L3PNaYn9m-BKiw8RI-116" target="Mr1L3PNaYn9m-BKiw8RI-195">
          <mxGeometry width="50" height="50" relative="1" as="geometry">
            <mxPoint x="440" y="550" as="sourcePoint" />
            <mxPoint x="490" y="500" as="targetPoint" />
            <Array as="points">
              <mxPoint x="-170" y="560" />
              <mxPoint x="-170" y="200" />
            </Array>
          </mxGeometry>
        </mxCell>
        <mxCell id="gzNBJORp5cGL8AY3jgsd-8" value="" style="endArrow=block;html=1;rounded=0;exitX=0;exitY=0.5;exitDx=0;exitDy=0;entryX=0;entryY=0.5;entryDx=0;entryDy=0;dashed=1;endFill=0;" edge="1" parent="WIyWlLk6GJQsqaUBKTNV-1" source="Mr1L3PNaYn9m-BKiw8RI-119" target="Mr1L3PNaYn9m-BKiw8RI-194">
          <mxGeometry width="50" height="50" relative="1" as="geometry">
            <mxPoint x="440" y="550" as="sourcePoint" />
            <mxPoint x="490" y="500" as="targetPoint" />
            <Array as="points">
              <mxPoint x="-190" y="640" />
              <mxPoint x="-190" y="114" />
            </Array>
          </mxGeometry>
        </mxCell>
        <mxCell id="gzNBJORp5cGL8AY3jgsd-9" value="" style="endArrow=classic;html=1;rounded=0;exitX=1;exitY=0.5;exitDx=0;exitDy=0;" edge="1" parent="WIyWlLk6GJQsqaUBKTNV-1" source="Mr1L3PNaYn9m-BKiw8RI-173">
          <mxGeometry width="50" height="50" relative="1" as="geometry">
            <mxPoint x="440" y="330" as="sourcePoint" />
            <mxPoint x="690" y="580" as="targetPoint" />
            <Array as="points">
              <mxPoint x="1430" y="-122" />
              <mxPoint x="1430" y="580" />
            </Array>
          </mxGeometry>
        </mxCell>
      </root>
    </mxGraphModel>
  </diagram>
</mxfile>
